<?xml version="1.0" encoding="utf-8"?>
<!-- Generator: Adobe Illustrator 23.0.6, SVG Export Plug-In . SVG Version: 6.00 Build 0)  -->
<svg version="1.1" id="Layer_1" xmlns="http://www.w3.org/2000/svg" xmlns:xlink="http://www.w3.org/1999/xlink" x="0px" y="0px"
	 viewBox="0 0 100.57 49.03" style="enable-background:new 0 0 100.57 49.03;" xml:space="preserve">
<style type="text/css">
	.st0{fill:#0068B4;}
	.st1{fill:#1DA958;}
	.st2{fill:#E71F61;}
	.st3{fill:#FCBD00;}
</style>
<g>
	<path class="st0" d="M84.64,42.22v1.75h2.27v1.17h-5.63v-1.17h2.3v-1.75h-2.3v-1.17h5.63v1.17H84.64z"/>
	<path class="st0" d="M84.12,31.88c1.77,0,2.88,1.31,2.88,2.89s-1.11,2.89-2.88,2.89c-1.76,0-2.91-1.31-2.91-2.89
		S82.38,31.88,84.12,31.88z M85.96,34.77c0-0.86-0.56-1.72-1.84-1.72c-1.26,0-1.87,0.87-1.87,1.73c0.01,0.84,0.62,1.71,1.87,1.71
		C85.38,36.49,85.96,35.62,85.96,34.77z"/>
	<path class="st0" d="M83.93,25.49c0.22-0.62,0.86-0.88,1.28-0.87c1.23,0,1.71,0.96,1.71,1.98v1.83h-5.64v-1.84
		c0-0.97,0.56-1.74,1.59-1.74c0.32,0,0.79,0.15,1.04,0.65H83.93z M83.47,26.58c-0.06-0.85-1.23-0.86-1.23,0v0.71h1.23V26.58z
		 M84.45,27.29h1.45v-0.71c0-1.16-1.45-1.11-1.45,0V27.29z"/>
	<path class="st0" d="M84.12,15.78c1.77,0,2.88,1.31,2.88,2.89c0,1.58-1.11,2.89-2.88,2.89c-1.76,0-2.91-1.31-2.91-2.89
		C81.21,17.09,82.38,15.78,84.12,15.78z M85.96,18.67c0-0.86-0.56-1.72-1.84-1.72c-1.26,0-1.87,0.87-1.87,1.73
		c0.01,0.84,0.62,1.71,1.87,1.71C85.38,20.39,85.96,19.52,85.96,18.67z"/>
	<path class="st0" d="M92.51,41.16c-0.47,0.45-0.66,0.98-0.65,1.45c0.02,1.12,0.9,1.73,1.88,1.73c0.99,0,1.83-0.62,1.83-1.73
		c0-0.5-0.21-1.07-0.74-1.53l0.62-0.79c0.81,0.67,1.19,1.41,1.19,2.32c0,1.87-1.38,2.87-2.88,2.87c-1.5,0-2.94-1-2.94-2.87
		c0-0.82,0.3-1.57,1.05-2.2L92.51,41.16z"/>
	<path class="st0" d="M90.93,33.79h0.98v1.26h4.63v1.17H91.9v1.27h-0.98V33.79z"/>
	<path class="st0" d="M96.53,29.53v1.14H90.9v-1.8c0-1.33,0.96-1.99,1.91-1.99c0.95,0,1.87,0.66,1.87,1.98v0.67H96.53z M92.81,28.03
		c-0.39,0-0.9,0.29-0.9,0.83v0.67h1.75v-0.67C93.66,28.32,93.18,28.03,92.81,28.03z"/>
	<path class="st0" d="M93.74,18.23c1.77,0,2.88,1.31,2.88,2.89s-1.11,2.89-2.88,2.89c-1.76,0-2.91-1.31-2.91-2.89
		S92,18.23,93.74,18.23z M95.58,21.12c0-0.86-0.56-1.72-1.84-1.72c-1.26,0-1.87,0.87-1.87,1.73c0.01,0.84,0.62,1.71,1.87,1.71
		C94.99,22.84,95.58,21.97,95.58,21.12z"/>
	<path class="st0" d="M91.92,11.59v2.15h1.28v-2.12h1.03v2.12h1.26v-2.15h1.03v3.28h-5.61v-3.28H91.92z"/>
	<path class="st0" d="M90.93,7.13h2.22l-2.22-1.91V3.83l2.5,2.13l3.11-2.15v1.34l-2.37,1.66l0.31,0.31h2.06v1.16h-5.61V7.13z"/>
</g>
<rect x="79.93" y="7.26" transform="matrix(6.123234e-17 -1 1 6.123234e-17 76.4265 91.8298)" class="st0" width="8.39" height="0.88"/>
<g>
	<rect x="34.83" y="7.16" class="st1" width="5.55" height="15.05"/>
</g>
<g>
	<rect x="34.83" y="26.76" class="st2" width="5.55" height="18.71"/>
</g>
<g>
	<rect x="34.83" y="3.51" class="st3" width="17.89" height="3.65"/>
</g>
<path class="st2" d="M46.55,9.88c-3.41,0-6.17,2.76-6.17,6.17c0,3.41,2.76,6.17,6.17,6.17c3.41,0,6.17-2.76,6.17-6.17
	C52.72,12.64,49.96,9.88,46.55,9.88z"/>
<g>
	<polygon class="st3" points="73.19,3.51 69,3.51 58.17,22.22 62.36,22.22 	"/>
</g>
<path class="st0" d="M28.64,12.86c1.38-0.95,2.29-2.53,2.29-4.34c0-2.9-2.35-5.25-5.25-5.25v8.67v1.83v8.67
	c2.9,0,5.25-2.35,5.25-5.25C30.93,15.39,30.02,13.8,28.64,12.86z"/>
<polygon class="st1" points="13,3.51 23.03,22.23 2.97,22.23 "/>
<polygon class="st0" points="40.38,36.11 50.95,26.76 50.95,45.48 "/>
<polygon class="st1" points="55.09,3.51 62.71,14.33 68.97,3.51 "/>
<polygon class="st1" points="63.28,26.75 73.31,45.48 53.25,45.48 "/>
</svg>
